<?xml version="1.0"?>
<svg xmlns="http://www.w3.org/2000/svg" xmlns:xlink="http://www.w3.org/1999/xlink" xmlns:svgjs="http://svgjs.com/svgjs" version="1.1" width="512" height="512" x="0" y="0" viewBox="0 0 512 512" style="enable-background:new 0 0 512 512" xml:space="preserve" class=""><g><g xmlns="http://www.w3.org/2000/svg"><path d="m421 316h-5.142c-12.524-35.405-46.45-60-84.858-60-38.657 0-72.759 24.917-85.093 60.674-31.641 4.277-57.085 28.374-63.398 59.326h-1.509c-33.091 0-60 26.909-60 60s26.909 60 60 60h240c49.629 0 91-40.371 91-90s-41.371-90-91-90z" fill="#f5cd0e" data-original="#000000" style="" class=""/><path d="m391 16h-391v120h391zm-300 90h-30v-30h30zm60 0h-30v-30h30zm60 0h-30v-30h30z" fill="#f5cd0e" data-original="#000000" style="" class=""/><path d="m331 226c21.553 0 42.133 5.839 60 16.179v-76.179h-391v90h251.975c21.418-18.794 49.204-30 79.025-30zm-240 0h-30v-30h30zm60 0h-30v-30h30zm60 0h-30v-30h30z" fill="#f5cd0e" data-original="#000000" style="" class=""/><path d="m159.979 348.476c12.173-27.466 35.669-48.56 64.438-57.627.877-1.694 1.998-3.208 2.95-4.849h-227.367v120h96.162c10.093-28.458 34.101-50.387 63.817-57.524zm-38.979-32.476h30v30h-30zm-30 30h-30v-30h30z" fill="#f5cd0e" data-original="#000000" style="" class=""/></g></g></svg>
