<svg height="512pt" viewBox="-66 0 512 512" width="512pt" xmlns="http://www.w3.org/2000/svg"><path d="m279 75.910156c-2.375 0-4.71875-1.09375-6.230469-3.15625-2.511719-3.4375-1.765625-8.261718 1.667969-10.777344 4.867188-3.5625 7.492188-6.0625 8.894531-7.652343-3.097656-1.277344-7.691406-3.441407-9.4375-8.710938-3.125-9.433593 5.863281-18.027343 14.039063-24.464843 3.347656-2.632813 8.195312-2.054688 10.828125 1.292968 2.632812 3.347656 2.054687 8.195313-1.292969 10.828125-4.207031 3.308594-6.421875 5.621094-7.578125 7.070313 3.046875 1.238281 8.015625 3.320312 9.78125 8.828125 3.082031 9.59375-6.421875 18.148437-16.125 25.25-1.371094 1.007812-2.96875 1.492187-4.546875 1.492187zm0 0" fill="#69d998"/><path d="m362.667969 146.296875c-1.578125 0-3.175781-.484375-4.546875-1.492187-9.703125-7.101563-19.207032-15.65625-16.128906-25.25 1.769531-5.507813 6.734374-7.589844 9.785156-8.828126-1.15625-1.453124-3.375-3.761718-7.578125-7.070312-3.347657-2.632812-3.925781-7.480469-1.292969-10.828125s7.480469-3.925781 10.828125-1.292969c8.175781 6.433594 17.160156 15.03125 14.035156 24.464844-1.742187 5.269531-6.339843 7.433594-9.433593 8.710938 1.402343 1.589843 4.023437 4.089843 8.894531 7.652343 3.433593 2.515625 4.179687 7.339844 1.667969 10.777344-1.511719 2.058594-3.855469 3.15625-6.230469 3.15625zm-9.65625-33.632813h.011719zm0 0" fill="#ffb8d5"/><path d="m319.664062 94.148438c0-3.199219-2.585937-5.789063-5.777343-5.789063-3.191407 0-5.777344 2.589844-5.777344 5.789063 0 3.195312 2.585937 5.789062 5.777344 5.789062 3.191406 0 5.777343-2.59375 5.777343-5.789062zm0 0" fill="#fce6a9"/><path d="m273.472656 135.464844c0-3.195313-2.585937-5.789063-5.777344-5.789063-3.191406 0-5.78125 2.59375-5.78125 5.789063 0 3.199218 2.589844 5.789062 5.78125 5.789062 3.191407 0 5.777344-2.589844 5.777344-5.789062zm0 0" fill="#83d9ff"/><path d="m328.980469 5.789062c0-3.195312-2.585938-5.789062-5.777344-5.789062s-5.777344 2.59375-5.777344 5.789062c0 3.195313 2.585938 5.789063 5.777344 5.789063s5.777344-2.59375 5.777344-5.789063zm0 0" fill="#83d9ff"/><path d="m26.460938 75.910156c-2.375 0-4.71875-1.09375-6.226563-3.15625-2.515625-3.4375-1.769531-8.261718 1.667969-10.777344 4.867187-3.5625 7.492187-6.0625 8.894531-7.652343-3.097656-1.277344-7.691406-3.441407-9.4375-8.710938-3.125-9.433593 5.859375-18.027343 14.039063-24.464843 3.34375-2.632813 8.191406-2.054688 10.828124 1.292968 2.632813 3.347656 2.054688 8.195313-1.292968 10.828125-4.207032 3.308594-6.421875 5.621094-7.582032 7.070313 3.050782 1.238281 8.015626 3.320312 9.785157 8.828125 3.082031 9.59375-6.421875 18.148437-16.125 25.25-1.375 1.007812-2.96875 1.492187-4.550781 1.492187zm0 0" fill="#ffb8d5"/><path d="m110.132812 146.296875c-1.582031 0-3.175781-.484375-4.546874-1.492187-9.703126-7.101563-19.207032-15.65625-16.128907-25.25 1.769531-5.507813 6.734375-7.589844 9.785157-8.828126-1.15625-1.453124-3.375-3.761718-7.582032-7.070312-3.347656-2.632812-3.925781-7.480469-1.292968-10.828125 2.636718-3.347656 7.484374-3.925781 10.828124-1.292969 8.179688 6.433594 17.164063 15.03125 14.039063 24.464844-1.746094 5.269531-6.339844 7.433594-9.4375 8.710938 1.402344 1.589843 4.027344 4.089843 8.894531 7.652343 3.4375 2.515625 4.183594 7.339844 1.667969 10.777344-1.507813 2.058594-3.851563 3.15625-6.226563 3.15625zm-9.65625-33.632813h.007813zm0 0" fill="#fce6a9"/><path d="m67.128906 94.148438c0-3.199219-2.585937-5.789063-5.777344-5.789063-3.191406 0-5.78125 2.589844-5.78125 5.789063 0 3.195312 2.589844 5.789062 5.78125 5.789062 3.191407 0 5.777344-2.59375 5.777344-5.789062zm0 0" fill="#83d9ff"/><path d="m155.808594 50.132812c0-3.195312-2.589844-5.789062-5.78125-5.789062s-5.777344 2.59375-5.777344 5.789062c0 3.199219 2.585938 5.789063 5.777344 5.789063s5.78125-2.589844 5.78125-5.789063zm0 0" fill="#69d998"/><path d="m20.9375 135.464844c0-3.195313-2.589844-5.789063-5.78125-5.789063s-5.777344 2.59375-5.777344 5.789063c0 3.199218 2.585938 5.789062 5.777344 5.789062s5.78125-2.589844 5.78125-5.789062zm0 0" fill="#69d998"/><path d="m76.445312 5.789062c0-3.195312-2.585937-5.789062-5.78125-5.789062-3.191406 0-5.777343 2.59375-5.777343 5.789062 0 3.195313 2.585937 5.789063 5.777343 5.789063 3.195313 0 5.78125-2.59375 5.78125-5.789063zm0 0" fill="#fce6a9"/><path d="m230.265625 11.578125c0-3.195313-2.585937-5.789063-5.777344-5.789063-3.191406 0-5.777343 2.59375-5.777343 5.789063 0 3.199219 2.585937 5.789063 5.777343 5.789063 3.191407 0 5.777344-2.589844 5.777344-5.789063zm0 0" fill="#ffb8d5"/><path d="m104.996094 326.035156 40.597656 55.792969c4.949219 5.019531 5.859375 12.757813 2.210938 18.785156l-31.339844 76.25c-.378906.925781-1.285156 1.535157-2.285156 1.535157h-13.710938c-1.585938 0-2.757812-1.46875-2.414062-3.015626l14.785156-65.804687c.734375-1.839844.472656-3.929687-.691406-5.535156l-59.710938-77.296875zm0 0" fill="#4f7693"/><path d="m119.074219 470.515625c-5.148438 0-8.972657-4.777344-7.84375-9.800781l13.257812-59.019532c.734375-1.839843.472657-3.929687-.691406-5.535156l-53.804687-69.652344-17.554688.238282 59.707031 77.296875c1.167969 1.605469 1.425781 3.695312.695313 5.535156l-14.785156 65.804687c-.34375 1.546876.828124 3.015626 2.414062 3.015626h13.710938c1 0 1.90625-.605469 2.285156-1.535157zm0 0" fill="#38627c"/><path d="m92.960938 365.320312 16.714843 34.101563c1.085938 3.804687.238281 7.902344-2.261719 10.972656l-42.972656 66.867188c-.453125.707031-1.238281 1.132812-2.082031 1.132812h-13.824219c-1.644531 0-2.828125-1.574219-2.378906-3.152343l21.863281-76.339844c.738281-2.570313.554688-5.3125-.511719-7.761719l-15.070312-64.398437 28.433594-.382813" fill="#4f7693"/><path d="m53.234375 205.167969 5.675781 16.738281c2.664063 7.863281 11.199219 12.078125 19.066406 9.410156l6.625-2.242187c7.863282-2.667969 12.078126-11.203125 9.410157-19.066407l-5.671875-16.738281c-2.664063-7.867187-11.203125-12.082031-19.066406-9.414062l-6.625 2.246093c-7.863282 2.664063-12.078126 11.199219-9.414063 19.066407zm0 0" fill="#fecbaa"/><path d="m69.976562 512h-30.582031c-4.257812 0-7.710937-3.453125-7.710937-7.710938 0-4.257812 3.453125-7.710937 7.710937-7.710937h30.582031c4.257813 0 7.710938 3.453125 7.710938 7.710937 0 4.257813-3.453125 7.710938-7.710938 7.710938zm0 0" fill="#2f5066"/><path d="m125.183594 512h-30.582032c-4.257812 0-7.710937-3.453125-7.710937-7.710938 0-4.257812 3.453125-7.710937 7.710937-7.710937h30.582032c4.257812 0 7.710937 3.453125 7.710937 7.710937-.003906 4.257813-3.453125 7.710938-7.710937 7.710938zm0 0" fill="#2f5066"/><path d="m73.625 234.671875-54.832031 28.261719c-11.539063 5.949218-18.792969 17.84375-18.792969 30.828125v46.027343c13.816406 0 25.019531-11.199218 25.019531-25.015624v-16.980469c0-4.578125 2.59375-8.765625 6.695313-10.804688l27.699218-13.769531" fill="#ef6085"/><path d="m189.925781 190.699219v-17.082031c0-7.023438-9.132812-9.75-12.984375-3.875l-13.984375 21.34375-99.394531 48.496093c-6.445312 3.097657-10.5625 9.589844-10.617188 16.738281l-.507812 70.421876 52.558594-.707032 1.796875-75.054687 67-34.292969c10.222656-4.992188 16.183593-15.277344 16.132812-25.988281zm0 0" fill="#ff84a7"/><path d="m178.882812 167.757812v14.203126c.050782 10.710937-5.910156 20.996093-16.132812 25.988281l-46.972656 24.042969c-12.339844 6.316406-20.234375 18.882812-20.566406 32.742187l-.265626 11.117187c-.554687 23.136719-19.304687 41.691407-42.445312 42.003907l-.066406 8.890625 52.558594-.710938 1.796874-75.050781 67-34.296875c10.222657-4.992188 16.183594-15.273438 16.132813-25.988281v-17.082031c.003906-6.019532-6.699219-8.863282-11.039063-5.859376zm0 0" fill="#ef6085"/><path d="m189.925781 190.699219v-17.082031c0-7.023438 9.132813-9.75 12.980469-3.875l13.984375 21.34375 99.398437 48.496093c6.441407 3.097657 10.5625 9.589844 10.617188 16.738281l.507812 70.421876-24.480468 2.671874-28.078125-3.378906-1.796875-75.054687-67-34.292969c-10.222656-4.992188-16.183594-15.277344-16.132813-25.988281zm0 0" fill="#83d9ff"/><path d="m274.855469 326.035156-40.597657 55.792969c-4.949218 5.019531-5.859374 12.757813-2.210937 18.785156l31.339844 76.25c.378906.925781 1.285156 1.535157 2.285156 1.535157h13.710937c1.582032 0 2.757813-1.46875 2.410157-3.015626l-14.78125-65.804687c-.734375-1.839844-.472657-3.929687.691406-5.535156l59.710937-77.296875zm0 0" fill="#4f7693"/><path d="m267.011719 409.578125c-.734375-1.84375-.472657-3.929687.691406-5.535156l59.710937-77.300781-16.488281-.21875-53.925781 69.808593c-1.164062 1.605469-1.425781 3.691407-.691406 5.535157l13.0625 58.164062c1.230468 5.460938-2.925782 10.652344-8.523438 10.652344l2.539063 6.179687c.378906.925781 1.285156 1.53125 2.285156 1.53125h13.710937c1.582032 0 2.757813-1.46875 2.410157-3.011719zm0 0" fill="#38627c"/><path d="m286.890625 365.320312-16.714844 34.101563c-1.085937 3.804687-.242187 7.902344 2.261719 10.972656l42.96875 66.867188c.457031.707031 1.242188 1.132812 2.082031 1.132812h13.824219c1.644531 0 2.832031-1.574219 2.378906-3.152343l-21.863281-76.339844c-.734375-2.570313-.550781-5.3125.515625-7.761719l15.070312-64.398437-28.4375-.382813" fill="#4f7693"/><path d="m326.613281 205.167969-5.671875 16.738281c-2.667968 7.863281-11.203125 12.078125-19.066406 9.410156l-6.625-2.242187c-7.863281-2.667969-12.078125-11.203125-9.414062-19.066407l5.675781-16.738281c2.664062-7.867187 11.199219-12.082031 19.066406-9.414062l6.621094 2.246093c7.867187 2.664063 12.082031 11.199219 9.414062 19.066407zm0 0" fill="#fecbaa"/><path d="m340.453125 512h-30.582031c-4.257813 0-7.710938-3.453125-7.710938-7.710938 0-4.257812 3.453125-7.710937 7.710938-7.710937h30.582031c4.257813 0 7.710937 3.453125 7.710937 7.710937 0 4.257813-3.453124 7.710938-7.710937 7.710938zm0 0" fill="#2f5066"/><path d="m285.246094 512h-30.578125c-4.257813 0-7.710938-3.453125-7.710938-7.710938 0-4.257812 3.453125-7.710937 7.710938-7.710937h30.578125c4.261718 0 7.714844 3.453125 7.714844 7.710937 0 4.257813-3.453126 7.710938-7.714844 7.710938zm0 0" fill="#2f5066"/><path d="m306.226562 234.671875 54.832032 28.261719c11.539062 5.949218 18.792968 17.84375 18.792968 30.828125v46.027343c-13.816406 0-25.019531-11.199218-25.019531-25.015624v-16.980469c0-4.578125-2.59375-8.765625-6.695312-10.804688l-27.703125-13.769531" fill="#43a3f9"/><path d="m189.925781 188.132812c5.015625 7.652344 12 13.808594 20.222657 17.820313l86.832031 42.367187c6.445312 3.097657 10.5625 9.589844 10.621093 16.738282l.441407 61.425781 19.371093.257813-.507812-70.421876c-.054688-7.148437-4.175781-13.640624-10.617188-16.738281l-99.394531-48.496093-13.988281-21.34375c-3.847656-5.875-12.980469-3.148438-12.980469 3.875zm0 0" fill="#5fc9ed"/><g fill="#a7c7d3"><path d="m189.925781 143.933594c-4.261719 0-7.710937-3.453125-7.710937-7.710938v-37.011718c0-4.261719 3.449218-7.714844 7.710937-7.714844 4.257813 0 7.710938 3.453125 7.710938 7.714844v37.011718c0 4.257813-3.453125 7.710938-7.710938 7.710938zm0 0"/><path d="m214.464844 151.472656c-1.972656 0-3.949219-.753906-5.453125-2.257812-3.011719-3.015625-3.011719-7.894532 0-10.90625l20.046875-20.050782c3.011718-3.007812 7.894531-3.007812 10.90625 0 3.011718 3.011719 3.011718 7.894532 0 10.90625l-20.046875 20.050782c-1.507813 1.503906-3.480469 2.257812-5.453125 2.257812zm0 0"/><path d="m165.386719 151.472656c-1.972657 0-3.949219-.753906-5.453125-2.257812l-20.046875-20.050782c-3.011719-3.011718-3.011719-7.894531 0-10.90625 3.011719-3.007812 7.894531-3.007812 10.902343 0l20.050782 20.050782c3.011718 3.011718 3.011718 7.890625 0 10.90625-1.507813 1.503906-3.480469 2.257812-5.453125 2.257812zm0 0"/></g></svg>