<?xml version="1.0" encoding="iso-8859-1"?>
<!-- Generator: Adobe Illustrator 19.0.0, SVG Export Plug-In . SVG Version: 6.00 Build 0)  -->
<svg version="1.1" id="Capa_1" xmlns="http://www.w3.org/2000/svg" xmlns:xlink="http://www.w3.org/1999/xlink" x="0px" y="0px"
	 viewBox="0 0 512 512" style="enable-background:new 0 0 512 512;" xml:space="preserve">
<path style="fill:#17ACE8;" d="M257,0C116.302,0,0,114.3,0,255c0,48.9,13.799,97.998,39.902,139.097l-38.701,97.2
	c-5.101,12.599,7.2,24.6,19.497,19.501l97.2-38.701c41.104,26.1,90.202,39.901,139.102,39.901c140.698,0,255-116.297,255-256.997
	S397.698,0,257,0z"/>
<path style="fill:#1689FC;" d="M512,255c0,140.7-114.302,256.997-255,256.997V0C397.698,0,512,114.3,512,255z"/>
<g>
	<path style="fill:#CAE8F9;" d="M317,331.997h-15V195c0-8.401-6.599-15-15-15h-90c-8.401,0-15,6.599-15,15v60
		c0,8.401,6.599,15,15,15h15v61.997h-15c-8.401,0-15,6.599-15,15v60c0,8.401,6.599,15,15,15h120c8.401,0,15-6.599,15-15v-60
		C332,338.596,325.401,331.997,317,331.997z"/>
	<path style="fill:#CAE8F9;" d="M257,60c-24.902,0-45,20.099-45,45s20.098,45,45,45s45-20.099,45-45S281.902,60,257,60z"/>
</g>
<g>
	<path style="fill:#B7E0F6;" d="M257,150V60c24.902,0,45,20.099,45,45S281.902,150,257,150z"/>
	<path style="fill:#B7E0F6;" d="M332,346.997v60c0,8.401-6.599,15-15,15h-60V180h30c8.401,0,15,6.599,15,15v136.997h15
		C325.401,331.997,332,338.596,332,346.997z"/>
</g>
<g>
</g>
<g>
</g>
<g>
</g>
<g>
</g>
<g>
</g>
<g>
</g>
<g>
</g>
<g>
</g>
<g>
</g>
<g>
</g>
<g>
</g>
<g>
</g>
<g>
</g>
<g>
</g>
<g>
</g>
</svg>
