<svg id="Capa_1" enable-background="new 0 0 512 512" height="512" viewBox="0 0 512 512" width="512" xmlns="http://www.w3.org/2000/svg"><g><path d="m398.68 354.27-8.51-26.17-83.2-12.09-25.96-52.6c12.12-8.1 20.11-21.9 20.11-37.53 0-24.89-20.24-45.13-45.12-45.13s-45.12 20.24-45.12 45.13c0 15.63 7.99 29.43 20.11 37.53l-25.96 52.6-83.2 12.09-8.51 26.17 60.21 58.69-14.21 82.86 22.26 16.18 74.42-39.12 74.42 39.12 22.26-16.18-14.21-82.86zm-142.68-113.27c-8.34 0-15.12-6.79-15.12-15.12 0-8.34 6.78-15.13 15.12-15.13s15.12 6.79 15.12 15.13c0 8.33-6.78 15.12-15.12 15.12z" fill="#fff066"/><path d="m338.47 412.96 14.21 82.86-22.26 16.18-74.42-39.12v-231.88c8.34 0 15.12-6.79 15.12-15.12 0-8.34-6.78-15.13-15.12-15.13v-30c24.88 0 45.12 20.24 45.12 45.13 0 15.63-7.99 29.43-20.11 37.53l25.96 52.6 83.2 12.09 8.51 26.17z" fill="#ffc648"/><path d="m302.64 15-14 179.4-32.64 16.32-32.64-16.32-14-179.4z" fill="#fd5e60"/><path d="m302.64 15-14 179.4-32.64 16.32v-195.72z" fill="#e21759"/><path d="m158.076 15v146.763l65.283 32.641v-179.404z" fill="#25d9f8"/><path d="m353.924 15h-65.282v179.404l65.282-32.641z" fill="#00bff1"/><path d="m123.35 0h265.3v30h-265.3z" fill="#4e588b"/><path d="m256 0h132.65v30h-132.65z" fill="#293e65"/></g></svg>